<?xml version="1.0" encoding="UTF-8" standalone="no"?>
<!-- Created with Inkscape (http://www.inkscape.org/) -->

<svg
   width="300"
   height="300"
   viewBox="0 0 79.374998 79.375"
   version="1.1"
   id="svg5"
   inkscape:version="1.2.2 (b0a8486541, 2022-12-01)"
   sodipodi:docname="lightmode.svg"
   inkscape:export-filename="lightmode.png"
   inkscape:export-xdpi="96"
   inkscape:export-ydpi="96"
   xmlns:inkscape="http://www.inkscape.org/namespaces/inkscape"
   xmlns:sodipodi="http://sodipodi.sourceforge.net/DTD/sodipodi-0.dtd"
   xmlns="http://www.w3.org/2000/svg"
   xmlns:svg="http://www.w3.org/2000/svg">
  <sodipodi:namedview
     id="namedview7"
     pagecolor="#ffffff"
     bordercolor="#000000"
     borderopacity="0.25"
     inkscape:showpageshadow="2"
     inkscape:pageopacity="0.0"
     inkscape:pagecheckerboard="0"
     inkscape:deskcolor="#d1d1d1"
     inkscape:document-units="px"
     showgrid="false"
     inkscape:zoom="2.5392028"
     inkscape:cx="174.07038"
     inkscape:cy="154.77299"
     inkscape:window-width="1920"
     inkscape:window-height="1008"
     inkscape:window-x="0"
     inkscape:window-y="0"
     inkscape:window-maximized="1"
     inkscape:current-layer="layer2" />
  <defs
     id="defs2" />
  <g
     inkscape:label="Layer 1"
     inkscape:groupmode="layer"
     id="layer1"
     style="display:none">
    <path
       style="color:#000000;fill:#61656c;fill-opacity:1;stroke-linecap:round;stroke-linejoin:round;-inkscape-stroke:none"
       d="M 34.2454,9.3977384 C 19.955736,12.250695 9.6082608,24.857314 9.5969628,39.428989 a 5.2921957,5.2921957 0 0 0 0,0.0039 C 9.5971916,56.296305 23.38199,70.079494 40.2454,70.079379 a 5.2921957,5.2921957 0 0 0 0.0039,0 c 13.45645,-0.0077 25.376623,-8.840734 29.298828,-21.71289 a 5.2921957,5.2921957 0 0 0 -5.773437,-6.78711 c -0.909586,0.123219 -1.826265,0.187187 -2.744141,0.191407 -11.74673,-0.0053 -21.154126,-9.414587 -21.15625,-21.16211 v -0.002 c 0,-6.63e-4 0,-0.0013 0,-0.002 0.0016,-1.619237 0.189073,-3.234028 0.558594,-4.810547 A 5.2921957,5.2921957 0 0 0 34.2454,9.3977384 Z M 29.487587,22.540317 c 0.91776,14.808801 11.982991,26.884906 26.355469,29.287109 -3.718964,4.684489 -9.336438,7.665123 -15.597656,7.669922 -11.142457,7.6e-5 -20.062179,-8.918619 -20.064453,-20.060547 v -0.002 c 0,-6.63e-4 0,-0.0013 0,-0.002 0.0068,-7.04489 3.65384,-13.306505 9.30664,-16.892578 z"
       id="path399" />
  </g>
  <g
     inkscape:groupmode="layer"
     id="layer3"
     inkscape:label="Layer 2"
     style="display:none">
    <path
       style="color:#000000;fill:#3e3f43;fill-opacity:1;stroke-linecap:round;stroke-linejoin:round;-inkscape-stroke:none"
       d="m 39.6875,14.001953 c -14.123391,0 -25.685547,11.562159 -25.685547,25.685547 0,14.123388 11.562156,25.685547 25.685547,25.685547 14.123391,0 25.685547,-11.562159 25.685547,-25.685547 0,-14.123388 -11.562156,-25.685547 -25.685547,-25.685547 z m 0,10.582031 c 8.40376,0 15.103516,6.699764 15.103516,15.103516 0,8.403752 -6.699756,15.103516 -15.103516,15.103516 -8.40376,0 -15.103516,-6.699764 -15.103516,-15.103516 0,-8.403752 6.699756,-15.103516 15.103516,-15.103516 z"
       id="path10412" />
    <path
       id="path10831"
       style="fill:#3e3f43;fill-opacity:1;stroke-width:12.6846;stroke-linecap:round;stroke-linejoin:round"
       d="m 39.692669,3.5088218 a 5.2916665,5.2916665 0 0 0 -5.282881,5.055505 h -0.01912 V 19.14766 H 44.974001 V 9.1208818 a 5.2916665,5.2916665 0 0 0 0.01033,-0.320393 5.2916665,5.2916665 0 0 0 -5.291667,-5.291667 z" />
    <path
       id="path10831-1"
       style="fill:#3e3f43;fill-opacity:1;stroke-width:12.6846;stroke-linecap:round;stroke-linejoin:round"
       d="m 39.692669,75.946978 a 5.2916665,5.2916665 0 0 1 -5.282881,-5.055505 h -0.01912 V 60.30814 h 10.583333 v 10.026778 a 5.2916665,5.2916665 0 0 1 0.01033,0.320393 5.2916665,5.2916665 0 0 1 -5.291667,5.291667 z" />
    <path
       id="path10831-8"
       style="fill:#3e3f43;fill-opacity:1;stroke-width:12.6846;stroke-linecap:round;stroke-linejoin:round"
       d="m 75.906578,39.733069 a 5.2916665,5.2916665 0 0 0 -5.055505,-5.282881 v -0.01912 H 60.267739 v 10.583333 h 10.026779 a 5.2916665,5.2916665 0 0 0 0.320393,0.01033 5.2916665,5.2916665 0 0 0 5.291667,-5.291667 z" />
    <path
       id="path10831-1-7"
       style="fill:#3e3f43;fill-opacity:1;stroke-width:12.6846;stroke-linecap:round;stroke-linejoin:round"
       d="m 3.4684214,39.733069 a 5.2916665,5.2916665 0 0 1 5.055505,-5.282881 v -0.01912 H 19.107259 V 45.014401 H 9.0804814 a 5.2916665,5.2916665 0 0 1 -0.320393,0.01033 5.2916665,5.2916665 0 0 1 -5.291667,-5.291667 z" />
    <path
       id="path10831-8-9"
       style="fill:#3e3f43;fill-opacity:1;stroke-width:12.6846;stroke-linecap:round;stroke-linejoin:round"
       d="m 65.2946,65.342311 a 5.2916665,5.2916665 0 0 0 0.160779,-7.310343 l 0.01352,-0.01352 -7.483547,-7.483547 -7.483547,7.483546 7.090004,7.090004 a 5.2916665,5.2916665 0 0 0 0.219247,0.233856 5.2916665,5.2916665 0 0 0 7.483548,0 z" />
    <path
       id="path10831-1-7-2"
       style="fill:#3e3f43;fill-opacity:1;stroke-width:12.6846;stroke-linecap:round;stroke-linejoin:round"
       d="m 14.073088,14.120799 a 5.2916665,5.2916665 0 0 1 7.310343,-0.160779 l 0.01352,-0.01352 7.483546,7.483546 -7.483546,7.483547 -7.090003,-7.090003 a 5.2916665,5.2916665 0 0 1 -0.233856,-0.219247 5.2916665,5.2916665 0 0 1 0,-7.483548 z" />
    <path
       id="path10831-8-9-0"
       style="fill:#3e3f43;fill-opacity:1;stroke-width:12.6846;stroke-linecap:round;stroke-linejoin:round"
       d="m 14.073088,65.344791 a 5.2916665,5.2916665 0 0 0 7.310343,0.160779 l 0.01352,0.01352 7.483547,-7.483547 -7.483546,-7.483547 -7.090004,7.090004 a 5.2916665,5.2916665 0 0 0 -0.233856,0.219247 5.2916665,5.2916665 0 0 0 0,7.483548 z" />
    <path
       id="path10831-1-7-2-2"
       style="fill:#3e3f43;fill-opacity:1;stroke-width:12.6846;stroke-linecap:round;stroke-linejoin:round"
       d="m 65.2946,14.123279 a 5.2916665,5.2916665 0 0 1 0.160779,7.310343 l 0.01352,0.01352 -7.483546,7.483546 -7.483547,-7.483546 7.090003,-7.090003 a 5.2916665,5.2916665 0 0 1 0.219247,-0.233856 5.2916665,5.2916665 0 0 1 7.483548,0 z" />
  </g>
  <g
     inkscape:groupmode="layer"
     id="layer2"
     inkscape:label="Layer 3">
    <ellipse
       style="fill:none;stroke:#3e3f43;stroke-width:10.5833;stroke-linecap:round;stroke-linejoin:round;stroke-dasharray:none;stroke-opacity:1"
       id="path398"
       cx="39.6875"
       cy="39.6875"
       rx="11.793385"
       ry="11.793405" />
    <circle
       style="fill:#3e3f43;fill-opacity:1;stroke:none;stroke-width:16.5005;stroke-linecap:round;stroke-linejoin:round;stroke-dasharray:none;stroke-opacity:1"
       id="path1006"
       cx="39.6875"
       cy="7.9375"
       r="5.2916665" />
    <circle
       style="fill:#3e3f43;fill-opacity:1;stroke:none;stroke-width:16.5005;stroke-linecap:round;stroke-linejoin:round;stroke-dasharray:none;stroke-opacity:1"
       id="path1006-3"
       cx="39.6875"
       cy="14.147353"
       r="5.2916665" />
    <rect
       style="fill:#3e3f43;fill-opacity:1;stroke:none;stroke-width:9.89662;stroke-linecap:round;stroke-linejoin:round;stroke-dasharray:none;stroke-opacity:1"
       id="rect1087"
       width="10.583333"
       height="6.053853"
       x="34.395832"
       y="7.7063246" />
    <circle
       style="fill:#3e3f43;fill-opacity:1;stroke:none;stroke-width:16.5005;stroke-linecap:round;stroke-linejoin:round;stroke-dasharray:none;stroke-opacity:1"
       id="path1006-6"
       cx="39.6875"
       cy="65.352081"
       r="5.2916665" />
    <circle
       style="fill:#3e3f43;fill-opacity:1;stroke:none;stroke-width:16.5005;stroke-linecap:round;stroke-linejoin:round;stroke-dasharray:none;stroke-opacity:1"
       id="path1006-3-7"
       cx="39.6875"
       cy="71.561935"
       r="5.2916665" />
    <rect
       style="fill:#3e3f43;fill-opacity:1;stroke:none;stroke-width:9.89662;stroke-linecap:round;stroke-linejoin:round;stroke-dasharray:none;stroke-opacity:1"
       id="rect1087-5"
       width="10.583333"
       height="6.053853"
       x="34.395832"
       y="65.120911" />
    <circle
       style="fill:#3e3f43;fill-opacity:1;stroke:none;stroke-width:16.5005;stroke-linecap:round;stroke-linejoin:round;stroke-dasharray:none;stroke-opacity:1"
       id="path1006-35"
       cx="39.749718"
       cy="-71.499718"
       r="5.2916665"
       transform="rotate(90)" />
    <circle
       style="fill:#3e3f43;fill-opacity:1;stroke:none;stroke-width:16.5005;stroke-linecap:round;stroke-linejoin:round;stroke-dasharray:none;stroke-opacity:1"
       id="path1006-3-6"
       cx="39.749718"
       cy="-65.289864"
       r="5.2916665"
       transform="rotate(90)" />
    <rect
       style="fill:#3e3f43;fill-opacity:1;stroke:none;stroke-width:9.89662;stroke-linecap:round;stroke-linejoin:round;stroke-dasharray:none;stroke-opacity:1"
       id="rect1087-2"
       width="10.583333"
       height="6.053853"
       x="34.45805"
       y="-71.730896"
       transform="rotate(90)" />
    <circle
       style="fill:#3e3f43;fill-opacity:1;stroke:none;stroke-width:16.5005;stroke-linecap:round;stroke-linejoin:round;stroke-dasharray:none;stroke-opacity:1"
       id="path1006-6-9"
       cx="39.749718"
       cy="-14.085135"
       r="5.2916665"
       transform="rotate(90)" />
    <circle
       style="fill:#3e3f43;fill-opacity:1;stroke:none;stroke-width:16.5005;stroke-linecap:round;stroke-linejoin:round;stroke-dasharray:none;stroke-opacity:1"
       id="path1006-3-7-1"
       cx="39.749718"
       cy="-7.8752813"
       r="5.2916665"
       transform="rotate(90)" />
    <rect
       style="fill:#3e3f43;fill-opacity:1;stroke:none;stroke-width:9.89662;stroke-linecap:round;stroke-linejoin:round;stroke-dasharray:none;stroke-opacity:1"
       id="rect1087-5-2"
       width="10.583333"
       height="6.053853"
       x="34.45805"
       y="-14.316306"
       transform="rotate(90)" />
    <circle
       style="fill:#3e3f43;fill-opacity:1;stroke:none;stroke-width:16.5005;stroke-linecap:round;stroke-linejoin:round;stroke-dasharray:none;stroke-opacity:1"
       id="path1006-35-7"
       cx="0.043995112"
       cy="-87.982811"
       r="5.2916665"
       transform="rotate(135)" />
    <circle
       style="fill:#3e3f43;fill-opacity:1;stroke:none;stroke-width:16.5005;stroke-linecap:round;stroke-linejoin:round;stroke-dasharray:none;stroke-opacity:1"
       id="path1006-3-6-0"
       cx="0.043995112"
       cy="-81.772957"
       r="5.2916665"
       transform="rotate(135)" />
    <rect
       style="fill:#3e3f43;fill-opacity:1;stroke:none;stroke-width:9.89662;stroke-linecap:round;stroke-linejoin:round;stroke-dasharray:none;stroke-opacity:1"
       id="rect1087-2-9"
       width="10.583333"
       height="6.053853"
       x="-5.247673"
       y="-88.213989"
       transform="rotate(135)" />
    <circle
       style="fill:#3e3f43;fill-opacity:1;stroke:none;stroke-width:16.5005;stroke-linecap:round;stroke-linejoin:round;stroke-dasharray:none;stroke-opacity:1"
       id="path1006-6-9-3"
       cx="0.043995112"
       cy="-30.56823"
       r="5.2916665"
       transform="rotate(135)" />
    <circle
       style="fill:#3e3f43;fill-opacity:1;stroke:none;stroke-width:16.5005;stroke-linecap:round;stroke-linejoin:round;stroke-dasharray:none;stroke-opacity:1"
       id="path1006-3-7-1-6"
       cx="0.043995112"
       cy="-24.358376"
       r="5.2916665"
       transform="rotate(135)" />
    <rect
       style="fill:#3e3f43;fill-opacity:1;stroke:none;stroke-width:9.89662;stroke-linecap:round;stroke-linejoin:round;stroke-dasharray:none;stroke-opacity:1"
       id="rect1087-5-2-0"
       width="10.583333"
       height="6.053853"
       x="-5.247673"
       y="-30.7994"
       transform="rotate(135)" />
    <circle
       style="fill:#3e3f43;fill-opacity:1;stroke:none;stroke-width:16.5005;stroke-linecap:round;stroke-linejoin:round;stroke-dasharray:none;stroke-opacity:1"
       id="path1006-35-7-6"
       cx="-56.170593"
       cy="-31.856213"
       r="5.2916665"
       transform="rotate(-135)" />
    <circle
       style="fill:#3e3f43;fill-opacity:1;stroke:none;stroke-width:16.5005;stroke-linecap:round;stroke-linejoin:round;stroke-dasharray:none;stroke-opacity:1"
       id="path1006-3-6-0-2"
       cx="-56.170593"
       cy="-25.646358"
       r="5.2916665"
       transform="rotate(-135)" />
    <rect
       style="fill:#3e3f43;fill-opacity:1;stroke:none;stroke-width:9.89662;stroke-linecap:round;stroke-linejoin:round;stroke-dasharray:none;stroke-opacity:1"
       id="rect1087-2-9-6"
       width="10.583333"
       height="6.053853"
       x="-61.462261"
       y="-32.087391"
       transform="rotate(-135)" />
    <circle
       style="fill:#3e3f43;fill-opacity:1;stroke:none;stroke-width:16.5005;stroke-linecap:round;stroke-linejoin:round;stroke-dasharray:none;stroke-opacity:1"
       id="path1006-6-9-3-1"
       cx="-56.170593"
       cy="25.558369"
       r="5.2916665"
       transform="rotate(-135)" />
    <circle
       style="fill:#3e3f43;fill-opacity:1;stroke:none;stroke-width:16.5005;stroke-linecap:round;stroke-linejoin:round;stroke-dasharray:none;stroke-opacity:1"
       id="path1006-3-7-1-6-8"
       cx="-56.170593"
       cy="31.768223"
       r="5.2916665"
       transform="rotate(-135)" />
    <rect
       style="fill:#3e3f43;fill-opacity:1;stroke:none;stroke-width:9.89662;stroke-linecap:round;stroke-linejoin:round;stroke-dasharray:none;stroke-opacity:1"
       id="rect1087-5-2-0-7"
       width="10.583333"
       height="6.053853"
       x="-61.462261"
       y="25.327198"
       transform="rotate(-135)" />
  </g>
</svg>
